<?xml version="1.0" encoding="UTF-8" standalone="no"?>
<svg
   xmlns:dc="http://purl.org/dc/elements/1.1/"
   xmlns:cc="http://creativecommons.org/ns#"
   xmlns:rdf="http://www.w3.org/1999/02/22-rdf-syntax-ns#"
   xmlns:svg="http://www.w3.org/2000/svg"
   xmlns="http://www.w3.org/2000/svg"
   version="1.1"
   id="svg2"
   width="56.957134"
   height="49.999962"
   viewBox="0 0 56.957137 49.999962">
  <metadata
     id="metadata8">
    <rdf:RDF>
      <cc:Work
         rdf:about="">
        <dc:format>image/svg+xml</dc:format>
        <dc:type
           rdf:resource="http://purl.org/dc/dcmitype/StillImage" />
        <dc:title></dc:title>
      </cc:Work>
    </rdf:RDF>
  </metadata>
  <defs
     id="defs6" />
  <path
     style="fill:#1c5aea;fill-opacity:1;stroke-width:0.02034209"
     d="m 9.2247914,49.985359 c -2.4101331,-0.12974 -5.8651852,-0.59472 -7.0981162,-0.95525 -1.20273247,-0.3517 -1.93804769,-0.86935 -2.09593145,-1.47551 -0.15039269,-0.57739 0.25700007,-1.2157 1.09011735,-1.70801 1.1052229,-0.65309 3.7347391,-1.15364 6.0697211,-1.15541 0.6244471,-4.8e-4 0.9555353,0.0198 1.2917228,0.0793 0.1688664,0.0299 0.4370573,0.10714 0.4224491,0.12175 -0.00403,0.004 -0.3272947,0.0214 -0.7183582,0.0386 -2.4220533,0.10666 -3.8226119,0.2758 -4.9653861,0.59964 -0.9296388,0.26345 -1.5063308,0.55973 -1.9116459,0.98212 -0.35833229,0.37344 -0.45647229,0.67823 -0.3116811,0.96798 0.3975221,0.79551 2.8873167,1.3955 6.2768524,1.51261 1.0434682,0.036 1.9487008,-0.0147 2.1623828,-0.12121 l 0.069732,-0.0348 0.1294117,-0.50856 c 0.6217133,-2.44316 1.7836203,-5.80396 3.1787913,-9.19462 0.09207,-0.22376 0.171482,-0.41698 0.176466,-0.42937 0.0064,-0.016 -0.157816,-0.0259 -0.566669,-0.0343 -0.586434,-0.012 -0.973262,-0.0443 -1.409755,-0.11777 -0.221092,-0.0372 -0.557532,-0.11168 -0.572608,-0.12675 -0.0033,-0.003 0.120105,-0.0173 0.274264,-0.0311 0.342706,-0.0307 0.820748,-0.10153 1.254423,-0.18595 0.442356,-0.0861 0.434892,-0.0819 0.221397,-0.12502 -0.53145,-0.10737 -1.150392,-0.41755 -1.625002,-0.81437 -0.6148532,-0.51408 -1.0790163,-1.19486 -1.4123999,-2.07154 l -0.042546,-0.11188 0.085003,0.10171 c 0.1756418,0.21017 0.5649815,0.57909 0.7782079,0.73741 0.619974,0.46032 1.416419,0.78052 2.211216,0.88898 l 0.09382,0.0128 -0.338193,-0.34156 c -0.585747,-0.59158 -1.005905,-1.18095 -1.393308,-1.95447 -0.429952,-0.85847 -0.6938772,-1.77295 -0.7938003,-2.75047 -0.032453,-0.31747 -0.065735,-1.07813 -0.047174,-1.07813 0.00621,0 0.04789,0.0667 0.092616,0.14817 0.1885654,0.34358 0.5992683,0.92526 0.9941433,1.408 0.590933,0.72244 1.672138,1.83861 2.425509,2.50397 0.09928,0.0877 0.09767,0.0834 -0.05115,-0.13482 -0.16301,-0.23906 -0.435963,-0.69613 -0.607457,-1.01721 -0.572876,-1.07259 -0.904645,-2.0922 -0.939641,-2.88777 l -0.01118,-0.25427 0.186913,0.32547 c 0.355226,0.61856 0.84092,1.31225 1.281842,1.83079 0.273352,0.32147 0.639588,0.71115 0.794509,0.84536 l 0.124272,0.10765 -0.01394,-0.10017 c -0.177079,-1.27294 -0.539898,-2.66601 -0.987388,-3.79115 -0.162957,-0.40973 -0.514883,-1.1341 -0.707173,-1.45558 -0.06692,-0.11188 -0.118623,-0.20665 -0.114894,-0.21059 0.01539,-0.0163 0.250046,0.10676 0.433483,0.2273 0.736545,0.48397 1.490183,1.33744 2.077894,2.35314 0.126677,0.21893 0.145415,0.24297 0.134791,0.17291 -0.149536,-0.98607 -0.21384,-2.13631 -0.175132,-3.13268 0.01304,-0.33565 0.02977,-0.66977 0.03718,-0.74249 l 0.01348,-0.13222 0.04818,0.16273 c 0.163606,0.55264 0.465339,1.41203 0.557568,1.58805 0.02537,0.0484 0.02983,0.007 0.04214,-0.39062 0.08505,-2.74659 0.868242,-5.42168 2.16405,-7.39159 0.314978,-0.47884 0.837237,-1.15583 0.853656,-1.10657 0.0037,0.0111 -0.0802,0.37677 -0.186459,0.81257 -0.106256,0.43581 -0.198169,0.81526 -0.204252,0.84323 -0.0061,0.028 0.06535,-0.0956 0.158748,-0.27461 0.713323,-1.36725 1.596655,-2.57031 2.688738,-3.66196 0.839323,-0.83899 1.685542,-1.50089 2.665349,-2.08482 0.283984,-0.16925 0.909902,-0.4995 1.136574,-0.5997 l 0.119471,-0.0528 -0.221371,0.21953 c -0.79932,0.79266 -1.531916,2.08977 -2.12987,3.77108 -0.276664,0.77791 -0.564135,1.8681 -0.562326,2.13253 2.12e-4,0.0288 0.08136,-0.149 0.180353,-0.39514 1.46067,-3.63173 3.596347,-6.18498 6.237219,-7.45675 0.589943,-0.2841 2.175308,-0.89663 3.234392,-1.24965 1.27714,-0.4257 2.232704,-0.6688 3.596031,-0.91485 1.854891,-0.33475 4.027036,-0.8521802 5.639279,-1.3433302 1.630731,-0.49678 2.750395,-0.97811 3.350362,-1.44028 l 0.07426,-0.0572 -0.02938,0.1284 c -0.09043,0.39522 -0.291254,0.98477 -0.483275,1.41877 -0.05165,0.11673 -0.09177,0.2141 -0.08916,0.21637 0.0026,0.002 0.293093,-0.39278 0.645519,-0.87789 l 0.640776,-0.88202 0.233934,-0.0732 c 0.128664,-0.0402 0.540591,-0.17432 0.915394,-0.29794 2.492497,-0.82208 4.394539,-1.64965 5.256283,-2.28699 0.09951,-0.0736 0.175418,-0.11945 0.16868,-0.10189 -0.0377,0.0982 -0.203898,0.66806 -0.255875,0.87726 -0.09745,0.39224 -0.194594,0.94591 -0.16597,0.94591 0.02789,0 0.367941,-0.57851 0.532067,-0.90518 0.164191,-0.32679 0.265314,-0.58612 0.328171,-0.84158 l 0.02687,-0.10923 0.171714,-0.0496 c 0.553833,-0.15989 1.253263,-0.50651 1.922327,-0.95264 0.807401,-0.53838 1.473705,-1.15865 1.977458,-1.84082 0.473552,-0.64128 0.815035,-1.39061 0.959977,-2.10652 0.04836,-0.23884 0.06241,-0.17696 0.06266,0.27573 0.0013,2.33915 -0.927811,5.03803 -2.584033,7.50623 -1.32533,1.97509 -3.039478,3.6895602 -5.013377,5.0143302 -0.398299,0.26731 -0.809044,0.51827 -1.257941,0.76857 l -0.362887,0.20235 -0.450797,-0.0635 c -0.965151,-0.13595 -2.224898,-0.23931 -2.708708,-0.22225 l -0.183022,0.006 0.854311,0.29139 c 0.46987,0.16027 0.881087,0.30255 0.913817,0.31619 0.05841,0.0243 0.05523,0.0264 -0.172907,0.11357 -1.436929,0.54886 -3.269322,1.44413 -4.650987,2.27238 -2.937124,1.76068 -4.866126,3.69001 -5.589889,5.59083 -0.0426,0.11188 -0.07951,0.20615 -0.08202,0.20949 -0.0025,0.003 -0.179385,0.0463 -0.393054,0.0955 -0.751671,0.17305 -1.774815,0.45355 -2.555748,0.70067 -0.526982,0.16675 -1.420216,0.47881 -1.388836,0.48519 0.01593,0.003 0.933287,-0.091 2.038574,-0.20954 1.105288,-0.11849 2.013349,-0.2117 2.017914,-0.20713 0.0046,0.005 -0.140668,0.0998 -0.322742,0.21156 -1.268909,0.7791 -2.25463,1.29138 -2.930441,1.52294 l -0.207811,0.0712 0.122053,-0.0127 c 0.6195,-0.0645 1.948766,-0.29189 2.303742,-0.39409 0.03636,-0.0105 0.06611,-0.0115 0.06611,-0.002 0,0.0403 -0.170861,0.5059 -0.291463,0.79419 -0.794414,1.89896 -2.067438,3.63811 -3.614218,4.93758 -1.696718,1.42542 -3.724519,2.35377 -6.011088,2.75193 -0.570824,0.0994 -1.151436,0.16976 -1.612821,0.19547 -0.137445,0.008 -0.25407,0.0207 -0.259166,0.0289 -0.02947,0.0477 1.809553,0.0474 2.39071,-3.7e-4 0.667817,-0.0549 1.318214,-0.15169 1.784638,-0.26564 0.247804,-0.0605 0.737387,-0.21821 0.910689,-0.29328 0.137881,-0.0597 0.05607,-0.003 -0.345815,0.23899 -1.440528,0.86808 -3.007784,1.67336 -4.33038,2.22501 -1.512024,0.63066 -2.884806,1.0163 -3.928509,1.10361 -0.438661,0.0367 -0.428535,0.0388 0.152565,0.0318 0.933036,-0.0112 1.743464,-0.13037 2.898748,-0.42616 0.835442,-0.2139 1.517746,-0.43943 2.425795,-0.80183 0.05874,-0.0235 0.106796,-0.0385 0.106796,-0.0335 0,0.0147 -0.416999,0.25802 -0.80777,0.47131 -1.705553,0.93089 -3.479236,1.55489 -4.816819,1.69461 -0.123069,0.0129 -0.319879,0.0299 -0.437354,0.0379 l -0.213592,0.0145 0.305131,0.0854 c 0.656826,0.18378 1.390043,0.29687 2.223106,0.34288 0.137457,0.008 0.246426,0.0173 0.24215,0.0216 -0.02232,0.0223 -0.688803,0.17547 -0.956392,0.21977 -0.444493,0.0736 -0.705162,0.0952 -1.142706,0.0947 -0.382129,-4.3e-4 -0.721456,-0.0323 -0.976421,-0.0919 l -0.122052,-0.0285 0.111881,0.10173 c 0.230483,0.20958 0.69921,0.54274 1.230697,0.87476 0.250051,0.1562 0.886114,0.52466 1.044503,0.60505 0.04863,0.0247 0.08517,0.0481 0.08118,0.0521 -0.01562,0.0156 -0.632582,-0.0341 -0.901923,-0.0727 -0.929356,-0.13319 -1.602627,-0.40219 -1.988721,-0.79458 l -0.137589,-0.13983 0.09427,0.18771 c 0.217928,0.43392 0.564071,1.02279 0.915186,1.55693 0.126864,0.193 0.226073,0.3509 0.220466,0.3509 -0.02325,0 -0.442466,-0.29196 -0.659784,-0.45951 -0.128664,-0.0992 -0.376048,-0.32245 -0.549743,-0.49611 -0.307219,-0.30717 -0.45948,-0.49909 -0.605545,-0.76328 -0.03711,-0.0671 -0.06266,-0.10375 -0.05676,-0.0814 0.174352,0.66169 0.186441,1.51847 0.03158,2.23763 -0.045,0.20896 -0.16294,0.60009 -0.180951,0.60009 -0.0066,0 -0.03821,-0.10298 -0.07021,-0.22885 -0.17736,-0.6977 -0.485901,-1.6715 -0.686655,-2.16719 -0.108604,-0.26815 -0.294248,-0.65527 -0.314239,-0.65527 -0.01805,0 -0.29455,0.58425 -0.466916,0.9866 -0.703017,1.64099 -1.134253,3.24387 -1.158189,4.30492 l -0.0063,0.2772 -0.09447,0.0871 c -0.485825,0.44781 -1.670028,2.10808 -2.748998,3.85413 -0.417677,0.67591 -0.465365,0.81095 -0.466138,1.31993 l -5.29e-4,0.3435 -0.05742,0.043 c -0.05437,0.0407 -0.08302,0.0432 -0.539066,0.0461 -0.2649026,0.002 -0.6281048,-0.005 -0.8071152,-0.0144 z m 2.4613926,-5.04259 c 0.06713,-0.0328 0.192138,-0.12427 0.277797,-0.20322 0.505481,-0.46588 1.020709,-1.43215 1.889383,-3.54338 0.355254,-0.86342 0.363405,-0.8821 0.624551,-1.43153 0.9198,-1.93517 2.584526,-4.79894 4.329983,-7.4487 2.881316,-4.37411 6.101762,-8.34822 9.111275,-11.24355 3.857766,-3.71139 7.898968,-6.40012 12.896886,-8.58068 0.634712,-0.27692 0.952443,-0.41021 2.268143,-0.95148 2.259476,-0.92954 3.377707,-1.43524 5.421168,-2.4516302 1.126437,-0.56027 2.15188,-1.08912 2.138246,-1.10276 -0.0029,-0.003 -0.398281,0.15557 -0.878544,0.35224 -3.697419,1.51409 -6.584399,2.6581202 -8.114987,3.2157302 -0.855609,0.3117 -1.611116,0.64569 -2.847893,1.25897 -2.918952,1.44742 -5.95476,3.263 -8.513165,5.09132 -1.062561,0.75935 -2.394864,1.80545 -3.122511,2.45174 -1.26858,1.12674 -2.289372,2.17167 -3.579387,3.66403 -4.292601,4.9659 -8.702258,11.83382 -10.965824,17.07897 -0.10821,0.25075 -0.295761,0.70306 -0.416777,1.00514 -0.121017,0.30208 -0.290198,0.71859 -0.375959,0.92557 -0.291425,0.70335 -0.518713,1.46173 -0.518713,1.73076 0,0.0984 0.04388,0.20988 0.09472,0.24056 0.05083,0.0307 0.135909,0.0131 0.281609,-0.0581 z m 6.865456,-0.692 c -1.244599,-0.0188 -2.577163,-0.049 -2.481735,-0.0562 0.03916,-0.003 0.840128,-0.0331 1.779933,-0.0668 11.639122,-0.41848 20.492846,-0.80817 22.427156,-0.98712 3.663983,-0.33896 6.902726,-1.18902 8.414787,-2.20859 0.627468,-0.42309 0.943433,-0.88054 0.917438,-1.32822 -0.01738,-0.29929 -0.138772,-0.53913 -0.421724,-0.83321 -0.459406,-0.47746 -1.218449,-0.91486 -2.370519,-1.36599 -3.314347,-1.29786 -7.831579,-1.73844 -13.018938,-1.26977 -2.238403,0.20224 -4.802673,0.63009 -5.655102,0.94357 -0.727539,0.26755 -1.59119,0.82999 -1.962798,1.27823 -0.533571,0.64361 -0.397751,1.16952 0.412709,1.59801 0.269005,0.14222 0.815304,0.2933 1.590773,0.43992 0.212575,0.0402 0.496347,0.0954 0.630605,0.12263 0.948973,0.19263 3.079858,0.24937 4.536287,0.12079 1.123994,-0.0992 2.250624,-0.30562 2.91909,-0.53477 1.053706,-0.36121 1.27881,-0.45659 1.599964,-0.67795 0.286474,-0.19746 0.474284,-0.45055 0.47473,-0.63977 4.77e-4,-0.20217 -0.185758,-0.40951 -0.512027,-0.57004 -0.193693,-0.0953 -0.598062,-0.2306 -0.848566,-0.28392 -0.232553,-0.0495 -0.177703,-0.0582 0.113647,-0.0179 0.835716,0.11539 1.474246,0.33902 1.787433,0.626 0.553537,0.50721 0.147181,1.15488 -1.009049,1.60827 -1.228955,0.4819 -4.126108,0.89745 -6.756144,0.96906 -1.531928,0.0417 -2.868468,-0.0524 -3.894304,-0.27419 -1.224222,-0.26468 -2.015315,-0.74777 -2.276288,-1.39002 -0.59628,-1.46746 1.123162,-2.55734 5.075582,-3.21721 2.418009,-0.4037 5.409296,-0.64101 7.5876,-0.60196 4.569051,0.0819 8.494952,0.83112 11.048015,2.1084 0.677913,0.33916 1.197586,0.73149 1.504843,1.1361 0.128227,0.16885 0.272226,0.46025 0.312491,0.63235 0.03996,0.1708 0.0402,0.48649 4.77e-4,0.64159 -0.04352,0.16999 -0.176246,0.43985 -0.295357,0.60052 -0.129768,0.17505 -0.474608,0.50543 -0.681654,0.65307 -1.667929,1.1894 -5.000045,1.99065 -9.712231,2.33545 -3.203532,0.23441 -6.9467,0.3906 -11.757729,0.49059 -1.248701,0.026 -8.112009,0.0398 -9.479414,0.0192 z"
     id="path12" />
</svg>
